<svg xmlns="http://www.w3.org/2000/svg" width="19.472" height="19.472" viewBox="0 0 19.472 19.472"><defs><style>.a{fill:#57c8f2;}</style></defs><path class="a" d="M17.038,7.3V2.938a1.218,1.218,0,0,0-.356-.861L14.96.356A1.217,1.217,0,0,0,14.1,0H3.651A1.217,1.217,0,0,0,2.434,1.217V7.3A2.434,2.434,0,0,0,0,9.736V14a.608.608,0,0,0,.609.609H2.434v3.651a1.217,1.217,0,0,0,1.217,1.217h12.17a1.217,1.217,0,0,0,1.217-1.217V14.6h1.826A.608.608,0,0,0,19.472,14V9.736A2.434,2.434,0,0,0,17.038,7.3ZM14.6,17.038H4.868V13.387H14.6Zm0-8.519H4.868V2.434h7.3V4.26a.608.608,0,0,0,.609.609H14.6Zm1.826,2.738a.913.913,0,1,1,.913-.913A.913.913,0,0,1,16.43,11.257Z"/></svg>