<svg xmlns="http://www.w3.org/2000/svg" width="29.397" height="32.729" viewBox="0 0 29.397 32.729"><defs><style>.a{fill:#9a9a9a;stroke:#9a9a9a;stroke-width:0.5px;}</style></defs><g transform="translate(-79.25 -706.738)"><path class="a" d="M53.366,21.076a.5.5,0,0,1-.5-.5V20.2a.5.5,0,0,1,.991,0v.377A.5.5,0,0,1,53.366,21.076Z" transform="translate(54.536 694.938)"/><path class="a" d="M48.507,34.262a2.9,2.9,0,0,1-2.892-2.892V16.7a.5.5,0,0,1,.5-.5H50.9a.5.5,0,0,1,.5.5v.972a.5.5,0,0,1-.991,0v-.478h-3.8V31.37a1.9,1.9,0,1,0,3.8,0v-10.5a.5.5,0,1,1,.991,0v10.5A2.9,2.9,0,0,1,48.507,34.262Z" transform="translate(56.998 696.128)"/><path class="a" d="M39.924,47.777H32.59a3.134,3.134,0,0,1-2.714-4.7l3.483-6.034V30.509a.5.5,0,0,1,.5-.5h4.808a.5.5,0,0,1,.5.5v6.53l3.483,6.034h0a3.134,3.134,0,0,1-2.718,4.7ZM34.344,31v6.168a.5.5,0,0,1-.066.248l-3.55,6.148a2.143,2.143,0,0,0,1.856,3.217h7.339a2.143,2.143,0,0,0,1.856-3.215l-3.55-6.148a.5.5,0,0,1-.066-.248V31Z" transform="translate(62.481 691.44)"/><path class="a" d="M21.433,39.908H11.967a1.338,1.338,0,0,1-1.337-1.337V14.961a1.339,1.339,0,0,1,1.337-1.337h3.05a.5.5,0,0,1,0,.991h-3.05a.347.347,0,0,0-.346.346v23.61a.347.347,0,0,0,.346.346h9.466a.5.5,0,0,1,0,.991Z" transform="translate(68.87 697.002)"/><path class="a" d="M38.577,23.8a.5.5,0,0,1-.5-.5V14.961a.346.346,0,0,0-.346-.346h-3.05a.5.5,0,0,1,0-.991h3.05a1.338,1.338,0,0,1,1.337,1.337V23.3a.5.5,0,0,1-.5.5Z" transform="translate(60.875 697.002)"/><path class="a" d="M27.794,15.421H17.912a1.392,1.392,0,0,1-1.391-1.387v-2.59a1.393,1.393,0,0,1,1.391-1.391h2.55a2.444,2.444,0,0,1,4.782,0h2.55a1.393,1.393,0,0,1,1.391,1.391v2.586A1.393,1.393,0,0,1,27.794,15.421Zm-9.882-4.378a.4.4,0,0,0-.4.4v2.586a.4.4,0,0,0,.4.4h9.882a.4.4,0,0,0,.4-.4V11.444a.4.4,0,0,0-.4-.4H24.3V10.55a1.453,1.453,0,0,0-2.9,0v.5Z" transform="translate(66.871 698.871)"/><path class="a" d="M29.185,21.8H15.472a.5.5,0,1,1,0-.991H29.185a.5.5,0,0,1,0,.991Z" transform="translate(67.395 695.563)"/><path class="a" d="M27.134,27.691H15.4a.5.5,0,0,1,0-.991H27.134a.5.5,0,0,1,0,.991Z" transform="translate(67.395 693.565)"/><path class="a" d="M26,33.582H15.472a.5.5,0,1,1,0-.991H26a.5.5,0,1,1,0,.991Z" transform="translate(67.395 691.566)"/><path class="a" d="M26,39.471H15.472a.5.5,0,1,1,0-.991H26a.5.5,0,0,1,0,.991Z" transform="translate(67.395 689.568)"/><path class="a" d="M24.3,45.362h-8.83a.5.5,0,1,1,0-.991H24.3a.5.5,0,0,1,0,.991Z" transform="translate(67.395 687.568)"/><path class="a" d="M50.9,28.972H46.111a.5.5,0,0,1,0-.991H50.9a.5.5,0,0,1,0,.991Z" transform="translate(56.998 692.13)"/><path class="a" d="M37,48.06H32.159a.5.5,0,0,1,0-.991H37a.5.5,0,0,1,0,.991Z" transform="translate(61.732 685.653)"/><path class="a" d="M41.56,48.06h-.326a.5.5,0,1,1,0-.991h.326a.5.5,0,1,1,0,.991Z" transform="translate(58.653 685.653)"/><path class="a" d="M46.066,48.06H43.951a.5.5,0,0,1,0-.991h2.114a.5.5,0,1,1,0,.991Z" transform="translate(57.731 685.653)"/></g></svg>