<svg xmlns="http://www.w3.org/2000/svg" width="44.366" height="37.59" viewBox="0 0 44.366 37.59"><defs><style>.a{fill:#6646e7;stroke:#6646e7;}</style></defs><path class="a" d="M57.672,32.2h-.339V25.082a.278.278,0,0,0,0-.129.332.332,0,0,0,0-.142.339.339,0,0,0-.359-.318l-9.127.556V20.339A.339.339,0,0,0,47.508,20H27.858a.339.339,0,0,0-.339.339v5.9l-7.65.61A3.635,3.635,0,0,0,16,30.164V54.9a1.694,1.694,0,0,0,1.694,1.694H57.672A1.694,1.694,0,0,0,59.366,54.9V33.891A1.694,1.694,0,0,0,57.672,32.2ZM56.656,25.19V32.2H47.847V25.726ZM28.2,20.678H47.169V32.2H45.136V25.278a.339.339,0,0,0-.339-.339,2.194,2.194,0,0,1-2.372-1.89.339.339,0,0,0-.339-.339H33.956a.339.339,0,0,0-.339.339c0,1-1.708,1.89-3.049,1.89a.339.339,0,0,0-.339.339V32.2H28.2ZM41.748,32.2a3.9,3.9,0,0,0-4.066-3.164A3.91,3.91,0,0,0,33.617,32.2h-2.71V25.6c1.47-.122,3.083-1.043,3.347-2.216h7.494a2.859,2.859,0,0,0,2.71,2.216V32.2Zm-.678,0H34.295a3.246,3.246,0,0,1,3.388-2.487A3.267,3.267,0,0,1,41.071,32.2ZM19.9,27.528l7.623-.6V32.2H16.678V30.164A2.973,2.973,0,0,1,19.9,27.528ZM57.672,55.912H17.694A1.016,1.016,0,0,1,16.678,54.9V32.874H57.672a1.016,1.016,0,0,1,1.016,1.016v6.437H53.606a4.4,4.4,0,0,0,0,8.809h5.082V54.9A1.016,1.016,0,0,1,57.672,55.912Zm1.016-7.454H53.606a3.727,3.727,0,1,1,0-7.454h5.082Z" transform="translate(-15.5 -19.5)"/></svg>